<?xml version="1.0" encoding="UTF-8" standalone="no"?>
<svg
   xmlns:dc="http://purl.org/dc/elements/1.1/"
   xmlns:cc="http://creativecommons.org/ns#"
   xmlns:rdf="http://www.w3.org/1999/02/22-rdf-syntax-ns#"
   xmlns:svg="http://www.w3.org/2000/svg"
   xmlns="http://www.w3.org/2000/svg"
   xmlns:sodipodi="http://sodipodi.sourceforge.net/DTD/sodipodi-0.dtd"
   xmlns:inkscape="http://www.inkscape.org/namespaces/inkscape"
   version="1.1"
   x="0px"
   y="0px"
   viewBox="0 0 117.53319 119.24163"
   enable-background="new 0 0 100 100"
   xml:space="preserve"
   id="svg2"
   inkscape:version="0.48.4 r9939"
   width="100%"
   height="100%"
   sodipodi:docname="MitC-gray-alpha.svg"><metadata
     id="metadata102"><rdf:RDF><cc:Work
         rdf:about=""><dc:format>image/svg+xml</dc:format><dc:type
           rdf:resource="http://purl.org/dc/dcmitype/StillImage" /><dc:title></dc:title></cc:Work></rdf:RDF></metadata><defs
     id="defs100"><filter
       id="filter3268"
       inkscape:menu="Transparency utilities"
       inkscape:label="Alpha repaint"
       inkscape:menu-tooltip="Repaint anything monochrome"
       color-interpolation-filters="sRGB"><feFlood
         id="feFlood3270"
         flood-color="rgb(186,186,186)"
         result="result1"
         flood-opacity="0.68333333333333335" /><feComposite
         id="feComposite3272"
         in2="SourceGraphic"
         operator="in"
         result="result2" /></filter></defs><sodipodi:namedview
     pagecolor="#ffffff"
     bordercolor="#666666"
     borderopacity="1"
     objecttolerance="10"
     gridtolerance="10"
     guidetolerance="10"
     inkscape:pageopacity="0"
     inkscape:pageshadow="2"
     inkscape:window-width="1920"
     inkscape:window-height="1053"
     id="namedview98"
     showgrid="false"
     inkscape:zoom="1"
     inkscape:cx="126.74155"
     inkscape:cy="69.8195"
     inkscape:window-x="0"
     inkscape:window-y="0"
     inkscape:window-maximized="1"
     inkscape:current-layer="svg2"
     fit-margin-top="0"
     fit-margin-left="0"
     fit-margin-right="0"
     fit-margin-bottom="0"
     showborder="true"
     inkscape:showpageshadow="false"
     borderlayer="false" /><g
     id="g3214"
     transform="translate(9.5868253,9.6141765)"
     style="fill:#ffffff;filter:url(#filter3268)"><g
       transform="translate(-11.917372,-12.976695)"
       id="g6"
       style="fill:#ffffff"><path
         d="m 59.657,39.739 c 0,2.392 -1.938,4.327 -4.33,4.327 -2.391,0 -4.331,-1.935 -4.331,-4.327 0,-2.394 1.94,-4.332 4.331,-4.332 2.392,0 4.33,1.938 4.33,4.332 z"
         id="path8"
         inkscape:connector-curvature="0"
         style="fill:#ffffff" /><path
         d="m 55.327,44.071 c -2.391,0 -4.336,-1.944 -4.336,-4.333 0,-2.392 1.945,-4.337 4.336,-4.337 2.391,0 4.335,1.946 4.335,4.337 0,2.389 -1.944,4.333 -4.335,4.333 z m 0,-8.659 c -2.385,0 -4.325,1.941 -4.325,4.327 0,2.383 1.94,4.322 4.325,4.322 2.385,0 4.325,-1.938 4.325,-4.322 0,-2.386 -1.94,-4.327 -4.325,-4.327 z"
         id="path10"
         inkscape:connector-curvature="0"
         style="fill:#ffffff" /></g><g
       transform="translate(-9.652542,-8.2097454)"
       id="g12"
       style="fill:#ffffff"><path
         d="m 43.378,35.167 c 0,1.331 -1.081,2.415 -2.413,2.415 -1.335,0 -2.416,-1.083 -2.416,-2.415 0,-1.336 1.081,-2.417 2.416,-2.417 1.332,0 2.413,1.08 2.413,2.417 z"
         id="path14"
         inkscape:connector-curvature="0"
         style="fill:#ffffff" /><path
         d="m 40.965,37.586 c -1.335,0 -2.421,-1.085 -2.421,-2.42 0,-1.335 1.086,-2.422 2.421,-2.422 1.333,0 2.418,1.087 2.418,2.422 0,1.335 -1.085,2.42 -2.418,2.42 z m 0,-4.831 c -1.329,0 -2.411,1.082 -2.411,2.412 0,1.329 1.082,2.409 2.411,2.409 1.328,0 2.408,-1.081 2.408,-2.409 0,-1.331 -1.081,-2.412 -2.408,-2.412 z"
         id="path16"
         inkscape:connector-curvature="0"
         style="fill:#ffffff" /></g><g
       id="g20"
       style="fill:#ffffff"><g
         id="g22"
         style="fill:#ffffff"><circle
           id="circle24"
           r="1.84"
           cy="45.466999"
           cx="27.947001"
           d="m 29.787001,45.466999 c 0,1.016204 -0.823797,1.84 -1.84,1.84 -1.016204,0 -1.840001,-0.823796 -1.840001,-1.84 0,-1.016204 0.823797,-1.84 1.840001,-1.84 1.016203,0 1.84,0.823796 1.84,1.84 z"
           sodipodi:cx="27.947001"
           sodipodi:cy="45.466999"
           sodipodi:rx="1.84"
           sodipodi:ry="1.84"
           style="fill:#ffffff" /></g><g
         id="g26"
         style="fill:#ffffff"><g
           id="g28"
           style="fill:#ffffff"><path
             id="path30"
             d="m 13.372,25.108 c 3.719,0 6.737,3.016 6.737,6.737 0,3.722 -3.018,6.738 -6.737,6.738 -3.722,0 -6.74,-3.016 -6.74,-6.738 0,-3.721 3.017,-6.737 6.74,-6.737 m 0,-3.15 c -5.454,0 -9.891,4.435 -9.891,9.887 0,5.453 4.437,9.889 9.891,9.889 5.45,0 9.887,-4.436 9.887,-9.889 0,-5.452 -4.437,-9.887 -9.887,-9.887 l 0,0 z"
             inkscape:connector-curvature="0"
             style="fill:#ffffff" /></g></g><g
         id="g32"
         style="fill:#ffffff"><g
           id="g34"
           style="fill:#ffffff"><path
             id="path36"
             d="m 17.258,54.587 -6.612,-7.83 c -0.839,-0.993 -0.713,-2.479 0.279,-3.313 0.441,-0.375 0.98,-0.558 1.519,-0.558 0.668,0 1.331,0.283 1.794,0.836 l 4.729,5.598 1.124,-3.554 -3.446,-4.079 c -1.042,-1.238 -2.577,-1.953 -4.201,-1.953 -1.301,0 -2.565,0.464 -3.558,1.306 -1.115,0.939 -1.801,2.269 -1.928,3.734 -0.123,1.466 0.333,2.892 1.282,4.016 l 6.218,7.364 2.8,-1.567 z"
             inkscape:connector-curvature="0"
             style="fill:#ffffff" /></g><g
           id="g38"
           style="fill:#ffffff"><path
             id="path40"
             d="m 29.619,63.121 c 0.119,-0.185 0.242,-0.366 0.339,-0.563 l -0.339,0.563 z"
             inkscape:connector-curvature="0"
             style="fill:#ffffff" /></g></g><g
         id="g42"
         style="fill:#ffffff"><path
           id="path44"
           d="m 19.066,45.348 -2.605,-3.939 c -0.485,2.286 0.082,4.829 1.784,6.815 l -0.006,2.196 0.839,-3.992 c -0.01,-0.37 -0.014,-0.732 -0.012,-1.08 z"
           inkscape:connector-curvature="0"
           style="fill:#ffffff" /></g><g
         id="g46"
         style="fill:#ffffff"><path
           id="path48"
           d="M 11.754,71.34"
           inkscape:connector-curvature="0"
           style="fill:#ffffff" /></g><g
         id="g50"
         style="fill:#ffffff"><path
           id="path52"
           d="m 35.896,91.117 -13.183,-20.339 0,0 -4.066,0.443 0,0 14.088,21.739 c 0.049,0.074 0.09,0.151 0.125,0.232 0.449,1 -0.117,2.283 -1.326,2.987 -0.638,0.368 -1.358,0.529 -2.035,0.445 -0.671,-0.083 -1.214,-0.397 -1.53,-0.886 L 11.652,70.551 c -0.673,-1.006 -0.104,-2.456 1.194,-3.216 0.461,-0.268 0.964,-0.382 1.463,-0.415 l -0.794,-0.789 5.705,-0.622 c -0.757,-0.881 -1.864,-1.467 -3.214,-1.639 -0.572,-0.067 -1.161,-0.038 -1.748,0.039 l -6,4.32 c -0.509,1.211 -0.569,2.495 -0.06,3.623 0.082,0.187 0.179,0.369 0.293,0.542 L 24.806,97.58 c 0.737,1.14 2.003,1.869 3.569,2.062 1.568,0.189 3.246,-0.176 4.727,-1.037 3.026,-1.763 4.339,-5.091 2.794,-7.488 z"
           inkscape:connector-curvature="0"
           style="fill:#ffffff" /></g><g
         id="g54"
         style="fill:#ffffff"><g
           id="g56"
           style="fill:#ffffff"><polygon
             id="polygon58"
             points="31.182,63.414 34.977,62.996 26.685,52.753 25.722,56.34 25.389,56.652 "
             style="fill:#ffffff" /></g><g
           id="g60"
           style="fill:#ffffff"><path
             id="path62"
             d="M 50.626,57.506 32.325,36.153 c -1.549,-1.809 -3.754,-2.843 -6.048,-2.843 -1.713,0 -3.354,0.6 -4.621,1.687 L 18.731,37.5 c -1.02,0.877 -1.707,1.996 -2.09,3.213 l 1.104,-1.253 1.617,2.977 c 0.25,-1.044 0.685,-1.913 1.419,-2.544 l 2.925,-2.504 c 0.71,-0.608 1.598,-0.928 2.57,-0.928 1.373,0 2.707,0.636 3.659,1.743 l 18.297,21.352 c 0.829,0.967 1.259,2.166 1.216,3.373 -0.042,1.161 -0.527,2.196 -1.36,2.91 l -2.92,2.501 c -1.19,1.016 -2.94,1.123 -4.447,0.473 l -4.417,0.48 0.242,0.282 c 1.551,1.811 3.757,2.848 6.05,2.848 1.711,0 3.353,-0.601 4.622,-1.69 l 2.923,-2.503 c 1.507,-1.291 2.38,-3.132 2.458,-5.182 0.071,-2.005 -0.627,-3.972 -1.973,-5.542 z"
             inkscape:connector-curvature="0"
             style="fill:#ffffff" /></g></g><g
         id="g64"
         style="fill:#ffffff"><path
           id="path66"
           d="m 26.106,45.467 -1.14,6.027 -0.271,1.37 c 0,0 -0.917,3.239 -0.917,3.268 0,0.724 -0.58,1.214 -0.872,1.55 -0.605,0.693 -2.989,2.152 -2.989,2.152 h 0.002 L 7.084,69.074 C 6.67,69.372 6.188,69.518 5.71,69.518 4.979,69.518 4.261,69.177 3.801,68.539 3.042,67.486 3.28,66.015 4.335,65.254 l 12.366,-8.901 2.931,-2.109 0.857,-4.366 0,0 2.898,-14.742 c 0.165,-0.843 0.777,-0.631 1.537,-0.477 v -0.011 l 0.588,0.092 c 0.065,0.006 0.131,0.015 0.199,0.015 0.149,0 0.304,0.014 0.457,0.045 0.712,0.14 1.271,0.121 1.586,0.292 l 0.833,0.131 c -0.607,-0.416 -1.297,-0.71 -2.04,-0.856 -0.346,-0.067 -0.706,-0.105 -1.062,-0.105 -2.622,0 -4.89,1.869 -5.395,4.442 L 16.78,52.412 2.494,62.699 c -1.192,0.856 -1.978,2.13 -2.215,3.582 -0.233,1.452 0.108,2.909 0.969,4.101 1.027,1.43 2.697,2.287 4.464,2.287 1.161,0 2.273,-0.36 3.216,-1.04 L 24.749,60.236 c 1.036,-0.741 1.744,-1.811 2.072,-3.026 0.228,-0.447 0.415,-0.922 0.513,-1.433 l 2.338,-9.831 -3.566,-0.479 z"
           inkscape:connector-curvature="0"
           style="fill:#ffffff" /></g><g
         id="g68"
         style="fill:#ffffff"><g
           id="g70"
           style="fill:#ffffff"><path
             id="path72"
             d="m 12.448,71.777 c -0.938,-0.237 -1.672,-1.248 -1.75,-2.51 -0.048,-0.751 0.14,-1.48 0.524,-2.057 0.384,-0.577 0.917,-0.928 1.508,-0.992 l 24.033,-2.805 0,0 -0.005,-3.573 -19.868,2.172 -9.102,6.554 c -0.021,0.339 -0.037,0.676 -0.014,1.021 0.201,3.302 2.308,5.881 4.902,5.992 0.208,0.008 0.419,0.004 0.628,-0.021 l 1.485,-0.16 -2.341,-3.621 0,0 z"
             inkscape:connector-curvature="0"
             style="fill:#ffffff" /></g><g
           id="g74"
           style="fill:#ffffff"><path
             id="path76"
             d="m 46.541,69.747 -2.101,0.787 0.727,-2.194 -26.52,2.882 2.274,3.505 22.772,-2.488 c 1.371,-0.147 2.614,-0.967 3.509,-2.311 0.34,-0.507 0.589,-1.078 0.792,-1.673 l -1.453,1.492 z"
             inkscape:connector-curvature="0"
             style="fill:#ffffff" /></g></g><g
         id="g78"
         style="fill:#ffffff"><circle
           id="circle80"
           r="1.786"
           cy="61.626999"
           cx="36.763"
           d="m 38.549001,61.626999 c 0,0.98638 -0.79962,1.786 -1.786001,1.786 -0.98638,0 -1.786,-0.79962 -1.786,-1.786 0,-0.986381 0.79962,-1.786 1.786,-1.786 0.986381,0 1.786001,0.799619 1.786001,1.786 z"
           sodipodi:cx="36.763"
           sodipodi:cy="61.626999"
           sodipodi:rx="1.786"
           sodipodi:ry="1.786"
           style="fill:#ffffff" /></g><g
         id="g82"
         style="fill:#ffffff"><path
           id="path84"
           d="m 29.672,85.272 c -0.149,0 -0.301,-0.021 -0.452,-0.066 -0.834,-0.25 -1.308,-1.128 -1.058,-1.961 l 3.65,-12.205 c 0.249,-0.834 1.127,-1.308 1.96,-1.059 0.834,0.25 1.308,1.128 1.058,1.961 l -3.65,12.205 c -0.203,0.684 -0.829,1.125 -1.508,1.125 z"
           inkscape:connector-curvature="0"
           style="fill:#ffffff" /></g><g
         id="g86"
         style="fill:#ffffff"><path
           id="path88"
           d="m 55.326,96.442 c -0.691,0 -1.325,-0.459 -1.518,-1.157 L 46.475,68.674 c -0.231,-0.839 0.262,-1.707 1.101,-1.938 0.837,-0.233 1.706,0.262 1.938,1.1 l 7.333,26.611 c 0.231,0.839 -0.261,1.707 -1.1,1.938 -0.142,0.039 -0.282,0.057 -0.421,0.057 z"
           inkscape:connector-curvature="0"
           style="fill:#ffffff" /></g><g
         id="g90"
         style="fill:#ffffff"><path
           id="path92"
           d="m 55.327,96.441 h -18.78 c -0.87,0 -1.576,-0.705 -1.576,-1.575 0,-0.87 0.706,-1.575 1.576,-1.575 h 18.78 c 0.87,0 1.575,0.705 1.575,1.575 0,0.87 -0.705,1.575 -1.575,1.575 z"
           inkscape:connector-curvature="0"
           style="fill:#ffffff" /></g></g><g
       id="layer1"
       transform="matrix(0.09437266,0,0,0.09437266,39.354393,-6.6925433)"
       style="fill:#ffffff"><g
         style="font-size:40px;font-style:normal;font-weight:normal;line-height:125%;letter-spacing:0px;word-spacing:0px;fill:#ffffff;fill-opacity:1;stroke:none;font-family:Sans"
         id="text2998"
         transform="matrix(11.936751,0,0,11.936751,-4494.8463,-3302.6467)"><path
           style="font-variant:normal;font-stretch:normal;text-align:start;writing-mode:lr-tb;text-anchor:start;fill:#ffffff;font-family:FontAwesome;-inkscape-font-specification:FontAwesome"
           id="path3007"
           d="m 403.03125,282.90625 c -6.31696,0 -11.4375,5.08929 -11.4375,11.40625 0,0.3125 0.0402,0.65625 0.0625,0.96875 -3.39285,1.58482 -5.75,5.03572 -5.75,9.03125 0,5.51338 4.48662,10 10,10 l 24.28125,0 c 4.73214,0 8.5625,-3.83036 8.5625,-8.5625 0,-4.0625 -2.83036,-7.45089 -6.625,-8.34375 0.58036,-0.89285 0.90625,-1.95536 0.90625,-3.09375 0,-3.14732 -2.57143,-5.6875 -5.71875,-5.6875 -1.42857,0 -2.70536,0.50447 -3.6875,1.375 -1.71875,-4.1741 -5.81697,-7.09375 -10.59375,-7.09375 z m 0.0937,4.8125 c 4.01488,0 8.125,2.8086 8.125,7.125 0,1.63452 -0.53003,3.04394 -1.625,4.25 -1.09497,1.20606 -2.56055,2.89575 -2.6875,4.59375 0.4602,0.26977 0.75,0.78882 0.75,1.3125 0,0.38086 -0.1211,0.73023 -0.375,1 0.2539,0.26978 0.375,0.65039 0.375,1.03125 0,0.52368 -0.27441,0.99561 -0.71875,1.28125 0.12695,0.22217 0.21875,0.4961 0.21875,0.75 0,1.03149 -0.79834,1.5 -1.71875,1.5 -0.4126,0.92041 -1.344,1.53125 -2.34375,1.53125 -0.99976,0 -1.93116,-0.61084 -2.34375,-1.53125 -0.92042,0 -1.71875,-0.46851 -1.71875,-1.5 0,-0.2539 0.0918,-0.52783 0.21875,-0.75 -0.44434,-0.28564 -0.71875,-0.75757 -0.71875,-1.28125 0,-0.38086 0.1211,-0.76147 0.375,-1.03125 -0.2539,-0.26977 -0.375,-0.61914 -0.375,-1 0,-0.52368 0.2898,-1.04273 0.75,-1.3125 -0.12695,-1.698 -1.59253,-3.38769 -2.6875,-4.59375 -1.09497,-1.20606 -1.625,-2.61548 -1.625,-4.25 0,-4.3164 4.11011,-7.125 8.125,-7.125 z m 0,2.03125 c -2.87232,0 -6.09375,1.91993 -6.09375,5.09375 0,1.01562 0.42725,2.06616 1.09375,2.84375 0.30152,0.34912 0.65137,0.66626 0.96875,1.03125 1.12671,1.34888 2.06006,2.95679 2.21875,4.75 l 3.625,0 c 0.15869,-1.79321 1.09204,-3.40112 2.21875,-4.75 0.31738,-0.36499 0.66723,-0.68213 0.96875,-1.03125 0.6665,-0.77759 1.09375,-1.82813 1.09375,-2.84375 0,-3.17382 -3.22144,-5.09375 -6.09375,-5.09375 z m 0,2.53125 c 1.47583,0 3.5625,0.80102 3.5625,2.5625 0,0.26977 -0.23023,0.5 -0.5,0.5 -0.26977,0 -0.53125,-0.23023 -0.53125,-0.5 0,-1.09497 -1.69019,-1.53125 -2.53125,-1.53125 -0.26978,0 -0.5,-0.23023 -0.5,-0.5 0,-0.26978 0.23022,-0.53125 0.5,-0.53125 z"
           inkscape:connector-curvature="0" /></g><g
         style="font-size:40px;font-style:normal;font-weight:normal;line-height:125%;letter-spacing:0px;word-spacing:0px;fill:#ffffff;fill-opacity:1;stroke:none;font-family:Sans"
         id="text3002"
         transform="matrix(0.71093759,0,0,0.71093759,68.349571,71.743057)" /></g></g></svg>